<?xml version="1.0" encoding="UTF-8"?>
<svg width="752pt" height="752pt" version="1.1" viewBox="0 0 752 752" xmlns="http://www.w3.org/2000/svg">
 <g>
  <path d="m368.6 205.81c5.8867-0.007813 11.527-2.3477 15.691-6.5078 4.1602-4.1641 6.5-9.8047 6.5078-15.691h-14.801c0 4.0859-3.3125 7.3984-7.3984 7.3984-4.0859 0-7.3984-3.3125-7.3984-7.3984h-14.801c0.007812 5.8867 2.3477 11.527 6.5078 15.691 4.1641 4.1602 9.8047 6.5 15.691 6.5078z"/>
  <path d="m210.7 548.46c36.293 31.938 84.484 49.527 135.7 49.527 21.375 0.03125 42.637-3.125 63.082-9.3672 13.301 2.9727 26.887 4.4727 40.516 4.4727h0.10547-0.003907c14.875 5.6836 31.18 6.4375 46.516 2.1602 22.566 6.3242 46.797 1.582 65.316-12.781 18.523-14.363 29.145-36.648 28.641-60.078-0.74609-35.359-26.805-64.809-60.488-71.129l0.003906-0.003906c1.6758-5.4453 1.7383-11.262 0.18359-16.746 8.8711-1.9297 16.363-7.8242 20.332-15.988 3.9648-8.1641 3.9648-17.699 0-25.863-3.9688-8.168-11.461-14.062-20.332-15.992 2.4648-8.6758 0.83594-18-4.4219-25.324-5.2539-7.3281-13.566-11.859-22.574-12.305-9.0039-0.44922-17.723 3.2383-23.68 10.008-3.8398-4.3633-8.8789-7.5039-14.488-9.0273 1.4336-14.727 7.957-28.488 18.449-38.922l1.2695-1.2695-10.465-10.465-1.2695 1.2695c-7.082 7.0703-12.758 15.426-16.715 24.621 4.1094-26.887-4.3711-54.168-23-73.984-8.6797-9.3711-13.344-21.77-12.992-34.539 0.019531-1.2344 0-2.4844-0.066407-3.7383h0.003907c-0.77344-12.867-6.2852-24.988-15.473-34.031s-21.398-14.359-34.273-14.926c-14.07-0.53516-27.754 4.6797-37.898 14.445-10.145 9.7656-15.875 23.238-15.875 37.32 0 0.32031 0 0.63672 0.011718 0.95703 0.14062 13.066-4.7578 25.688-13.672 35.242-11.668 12.754-19.371 28.633-22.168 45.691-2.8438-0.32812-5.707-0.49219-8.5703-0.49609-19.625 0.003906-38.445 7.8008-52.324 21.676-13.875 13.879-21.672 32.699-21.672 52.324s7.7969 38.445 21.672 52.32c2.4805 2.4766 5.125 4.7734 7.9258 6.875h-66.598c-4.0859 0-7.3984 3.3125-7.3984 7.4023 0 45.641 20.133 88.492 56.691 120.66zm200.18 25.312-0.17188-0.039063v0.003907c-34.105-8.1055-64.879-26.543-88.121-52.785-23.238-26.246-37.812-59.023-41.73-93.859 0-0.039062-0.007813-0.078125-0.011719-0.11719-0.69141-6.2695-1.0352-12.57-1.0391-18.875-0.003907-12.738 1.4141-25.438 4.2266-37.859 5.9492 0.57422 11.969 0.86328 17.973 0.86328 0.44922 0 0.88672-0.011719 1.332-0.015625 1.6016 13.43 4.6758 26.645 9.168 39.402 0.023438 0.070312 0.046875 0.14062 0.070313 0.21094 16 44.719 48.469 81.645 90.773 103.23-3.1719 22.66 4.375 45.508 20.414 61.824 0.20703 0.21094 0.42188 0.40625 0.63281 0.61328-4.5508-0.6875-9.0547-1.5508-13.516-2.5938zm-105.23-261.54c-0.43359 2.1406-0.82422 4.2891-1.1758 6.4336l-24.668 24.668v-40.863c9.2773 1.1172 18.145 4.4648 25.844 9.7617zm52.379 17.418v-0.003906c-2.0938-9.2305-3.4141-18.617-3.9492-28.066-0.12109-2.1016-1.1289-4.0547-2.7773-5.3672-1.6484-1.3125-3.7773-1.8633-5.8516-1.5078-1.8906 0.32031-3.8047 0.60156-5.7344 0.86328v-0.003907c1.625-7.2969 5.9492-13.711 12.109-17.949 6.1562-4.2383 13.691-5.9883 21.09-4.8984 7.3945 1.0859 14.105 4.9336 18.785 10.766 4.6758 5.8359 6.9727 13.223 6.4258 20.676-0.54688 7.457-3.8945 14.434-9.3711 19.523-5.4766 5.0859-12.676 7.918-20.152 7.9141-3.6133 0.007813-7.1992-0.65234-10.574-1.9492zm-25.777-18.391c2.5625-0.21094 5.1289-0.47266 7.6758-0.79297h0.003907c0.88281 8.8398 2.4062 17.598 4.5508 26.219 4.4141 17.762 11.473 34.766 20.934 50.434 0.33594 0.5625 0.68359 1.1172 1.0312 1.6797h-0.003906c-5.6133 8.1211-6.8047 18.508-3.1719 27.688 3.6289 9.1797 11.598 15.945 21.246 18.031-2.2344 7.8477-1.125 16.27 3.0586 23.27 4.1875 7.0039 11.078 11.969 19.047 13.715 7.9727 1.75 16.309 0.12891 23.043-4.4766-10.293 8.4922-18.121 19.586-22.672 32.129-37.41-20.047-66.059-53.258-80.402-93.203-0.019532-0.066406-0.042969-0.13281-0.066406-0.19922h-0.003907c-4.8906-13.824-7.9688-28.227-9.1562-42.844-0.0625-0.74609-0.11719-1.4922-0.16797-2.2188-0.070312-1.0156-0.12891-2.0352-0.18359-3.0625v-0.074218c-0.14062-2.8516-0.21094-5.7617-0.21094-8.6523v0.003906c0-8.5781 0.64062-17.141 1.918-25.625 0.5625-3.793 1.2734-7.6055 2.1289-11.422 3.8633-0.078125 7.6875-0.28125 11.402-0.59766zm65.949 57.336c0.003906-4.1289 1.7305-8.0703 4.7656-10.871s7.1016-4.2031 11.219-3.875c4.1172 0.33203 7.9062 2.3672 10.457 5.6133 2.0898 2.6602 3.207 5.957 3.1602 9.3438-0.046875 3.3828-1.2539 6.6484-3.418 9.25-3.0508 1.1992-5.8828 2.8984-8.3789 5.0234-1.9883 0.41016-4.0391 0.41016-6.0273 0-2.4883-2.125-5.3125-3.8203-8.3594-5.0234-2.2148-2.6523-3.4258-6.0039-3.418-9.4609zm71.004 26.461h0.003906c1.6367-1.6133 3.625-2.8242 5.8125-3.5391 0.03125-0.007813 0.0625-0.019532 0.09375-0.027344h0.015625l0.074219-0.023438c2.8594-0.88281 5.9219-0.88281 8.7852 0 0.074219 0.023438 0.14844 0.046875 0.22656 0.066406 2.1641 0.71875 4.1367 1.9219 5.7617 3.5195 2.6406 2.6016 4.2109 6.1016 4.3984 9.8047 0.18359 3.7031-1.0273 7.3398-3.3945 10.191-3.3594 1.3281-6.4453 3.2539-9.1172 5.6836l-0.078125-0.49609h0.003906c-4.6055 0.69141-9.2695-0.82813-12.582-4.1016-0.058593-0.058594-0.11719-0.11328-0.17969-0.17188l0.003906 0.003906c-2.3086-2.3477-3.7656-5.3945-4.1445-8.6602-0.375-3.2695 0.34375-6.5664 2.0547-9.3789 0.62891-1.0469 1.3906-2.0117 2.2656-2.8711zm47.395 47.535c-0.003906 2.6172-0.70312 5.1875-2.0312 7.4453-3.8438 0.097656-7.6719 0.49609-11.457 1.1875-1.4453 0.26172-2.9062 0.4375-4.375 0.52344-1.5273-7.0352-3.6211-13.934-6.2578-20.633 1.4062-1.1523 3.0156-2.0312 4.7422-2.5977l0.09375-0.027344 0.019531-0.003906 0.070313-0.023438c2.8633-0.88672 5.9258-0.88672 8.7852 0 0.058594 0.019531 0.12109 0.035156 0.18359 0.054688h0.003906c2.168 0.70312 4.1484 1.9023 5.7734 3.5 0.23047 0.23047 0.44922 0.46094 0.67578 0.71484 2.4297 2.7109 3.7734 6.2227 3.7734 9.8594zm-114.95-9.4688c3.0312-1.1992 5.8438-2.8945 8.3242-5.0078 1.9883-0.41016 4.0391-0.41016 6.0234 0 2.4883 2.1172 5.3086 3.8086 8.3438 5.0078 2.2305 2.6523 3.4531 6.0078 3.457 9.4688 0 0.66016-0.046875 1.3203-0.14062 1.9766-0.61328 4.6133-3.3594 8.668-7.4141 10.949-4.0586 2.2812-8.9492 2.5195-13.211 0.64453-4.2578-1.8711-7.3867-5.6406-8.4453-10.176-1.0586-4.5312 0.074218-9.2969 3.0625-12.863zm33.547 29.027c0.12891 0.14844 0.25391 0.29688 0.38672 0.44141-0.94141 0.63281-1.8672 1.2891-2.7734 1.9609v0.003906c0.83984-0.75781 1.6367-1.5586 2.3867-2.4062zm14.441-6.9648c-3.7461-2.3047-6.2734-6.1562-6.8945-10.512-0.10156-0.6875-0.14844-1.3828-0.14844-2.082-0.003906-3.4609 1.2148-6.8125 3.4414-9.4648 3.043-1.2031 5.8672-2.8984 8.3555-5.0156 1.9805-0.40625 4.0234-0.40625 6.0039 0 2.4883 2.1172 5.3086 3.8086 8.3438 5.0117 1.9922 2.3672 3.1836 5.3008 3.4141 8.3828 0.23047 3.0859-0.51562 6.1641-2.1328 8.8008-6.9922 0.63672-13.859 2.2812-20.383 4.8789zm0.35938-49.59c0 3.9219-1.5625 7.6875-4.3359 10.465-2.7773 2.7734-6.5391 4.332-10.465 4.332h-2.9062c-0.47656-0.27734-0.98438-0.5-1.5117-0.66797v-0.003907c-3.5-1.0977-6.4688-3.4492-8.332-6.6094-1.8594-3.1562-2.4844-6.8945-1.75-10.488 0.73828-3.5898 2.7812-6.7812 5.7344-8.9531s6.6094-3.168 10.258-2.7969c3.6484 0.36719 7.0273 2.0781 9.4883 4.7969 2.457 2.7227 3.8203 6.2578 3.8203 9.9258zm-44.398 0c0 3.9219-1.5625 7.6875-4.3359 10.465-2.7773 2.7734-6.5391 4.332-10.465 4.332s-7.6875-1.5586-10.465-4.332c-2.7734-2.7773-4.3359-6.543-4.3359-10.465 0-3.9258 1.5625-7.6914 4.3359-10.465 2.7773-2.7773 6.5391-4.3359 10.465-4.3359 3.9219 0.003907 7.6836 1.5664 10.461 4.3398 2.7734 2.7734 4.332 6.5352 4.3398 10.461zm-103.44-49.293h-0.15625c-4.5664 0-9.1367-0.20312-13.676-0.5625l13.809-13.809c-0.089844 2.3242-0.13281 4.6484-0.13281 6.9727 0 2.4648 0.0625 4.9414 0.15625 7.3984zm-37.152-12.969-28.895-28.895c8.3711-6.5312 18.355-10.672 28.895-11.969zm-10.465 10.461h-40.863c1.3008-10.535 5.4375-20.523 11.969-28.891zm10.465 66.125c-10.539-1.2969-20.523-5.4336-28.895-11.969l28.895-28.891zm11.402 52.273h-11.402v14.801h14.801v-6.2734h-0.003906c10.855 25.422 27.277 48.086 48.055 66.316-33.961-3.5-65.117-16.605-89.176-37.781-23.473-20.656-37.262-46.715-39.379-74.062h67.691c1.8477 12.625 5 25.023 9.4141 37zm299.37 50.512v-0.003907c0.39844 19.07-8.4062 37.168-23.656 48.621-15.254 11.449-35.09 14.859-53.289 9.1523-1.4453-0.45312-2.9922-0.45312-4.4375 0-16.477 5.1797-34.391 2.9062-49.051-6.2227-14.66-9.1289-24.602-24.203-27.223-41.273s2.3438-34.434 13.59-47.539c11.246-13.105 27.652-20.645 44.922-20.648h0.15234c3.1172 0.015625 6.2305 0.26953 9.3086 0.76953 0.082032 0.64844 0.15234 1.2812 0.21094 1.8789 0.007812 0.09375 0.019531 0.19531 0.035156 0.29688 0.43359 4.1133 0.65234 8.2461 0.64844 12.383v5.7734c-4.6602-1.4961-7.3984-4.2227-7.3984-6.3008h-14.797c0 12.449 13 22.199 29.598 22.199 16.598 0 29.598-9.75 29.598-22.199h-14.797c0 2.0781-2.7383 4.8086-7.3984 6.3008v-5.7734c0-4.5781-0.23828-9.1484-0.71094-13.703 1.5742-0.14062 3.1445-0.35547 4.707-0.64062h0.003906c3.5117-0.64453 7.0742-0.97656 10.645-0.98438 32.051-0.070313 58.66 25.898 59.34 57.91zm-36.988-117.11c0.011719 4.4531-1.9883 8.6719-5.4453 11.484-3.4531 2.8125-7.9922 3.9141-12.352 3-2.5-2.1289-5.332-3.832-8.3867-5.0352-3.082-3.7109-4.1602-8.6875-2.8945-13.34 1.2695-4.6523 4.7227-8.3984 9.2578-10.035s9.582-0.96094 13.527 1.8125c3.9492 2.7695 6.2969 7.2891 6.293 12.113zm-37-51.797 0.003906-0.003907c3.7656 0 7.3945 1.4375 10.137 4.0195 2.7461 2.582 4.4023 6.1133 4.6328 9.8711 0.23047 3.7617-0.98047 7.4688-3.3867 10.367-3.0508 1.2031-5.8828 2.8984-8.3828 5.0273-1.9805 0.40625-4.0195 0.40625-6.0039 0-2.5-2.1289-5.332-3.8281-8.3828-5.0352-2.4062-2.8984-3.6172-6.6055-3.3828-10.363 0.23047-3.7578 1.8906-7.2891 4.6328-9.8672 2.7461-2.582 6.3711-4.0195 10.137-4.0195zm-29.598 14.801 0.003907-0.003907c0.007812 3.4531-1.2031 6.8008-3.4141 9.4492-3.0547 1.2031-5.8867 2.9062-8.3867 5.0352-1.9805 0.40234-4.0195 0.40234-6 0-2.5-2.1289-5.332-3.8281-8.3828-5.0312-3.082-3.707-4.1641-8.6875-2.8984-13.34 1.2656-4.6523 4.7188-8.3984 9.2539-10.035 4.5352-1.6367 9.5859-0.96094 13.531 1.8086 3.9453 2.7695 6.2969 7.293 6.2969 12.113zm-21.914-28.73c-0.53125 0.13281-1.0586 0.27734-1.5781 0.43359 0.71875-1.5039 1.3945-3.0273 2.0234-4.5703-0.18359 1.3711-0.33203 2.7461-0.44141 4.1328zm-136.23-87.867c11.496-12.359 17.785-28.676 17.559-45.551v-0.12891c-0.003906-0.17188 0-0.34766 0-0.51953v-0.003906c0-10.059 4.0938-19.684 11.344-26.66 7.25-6.9766 17.027-10.699 27.078-10.312 9.1914 0.40234 17.91 4.1953 24.469 10.648s10.496 15.105 11.051 24.293c0.046874 0.90234 0.0625 1.8164 0.046874 2.7109v-0.003906c-0.42969 16.621 5.6719 32.746 16.992 44.918 11.562 12.328 18.551 28.242 19.809 45.094 1.2578 16.852-3.2969 33.625-12.902 47.531-6.75-4.5273-15.066-6.0781-22.996-4.2891-7.9297 1.7852-14.777 6.7578-18.934 13.742-4.1562 6.9883-5.2539 15.375-3.043 23.199-2.3203 0.5-4.5742 1.2852-6.707 2.3281-5.1289-8.5625-9.4883-17.562-13.031-26.898-0.76562-2.0195-1.4805-4.0703-2.1719-6.1328 11.719 1.5977 23.59-1.5469 32.98-8.7383s15.523-17.832 17.039-29.562c1.5117-11.73-1.7188-23.578-8.9766-32.918-7.2539-9.3398-17.938-15.395-29.68-16.828-11.738-1.4297-23.566 1.8828-32.852 9.207-9.2891 7.3203-15.27 18.047-16.621 29.797-2.5469 0.11328-5.1172 0.17578-7.6992 0.17578-0.52344 0-1.0508 0-1.5742-0.015625l0.003906 0.003906c-1.4297-0.050781-2.8477 0.32422-4.0703 1.0742-4.9336-3.0352-10.203-5.4844-15.707-7.3008 2.2148-14.508 8.6836-28.031 18.594-38.859zm-100.38 116.59h40.859l-28.891 28.891c-6.5312-8.3672-10.668-18.352-11.969-28.891zm-29.215 66.598c2.1094 31.633 17.695 61.641 44.441 85.176 31.078 27.359 72.809 42.422 117.5 42.422 0.69531 0 1.3867-0.019531 2.0859-0.027344 10.477 6.8984 21.629 12.707 33.285 17.336-11.68 2.0586-23.512 3.0938-35.371 3.0859-95.09 0-172.97-65.727-177.39-147.99z"/>
  <path d="m228.01 450h14.801v14.801h-14.801z"/>
 </g>
</svg>
