<?xml version="1.0" encoding="UTF-8"?>
<svg width="752pt" height="752pt" version="1.1" viewBox="0 0 752 752" xmlns="http://www.w3.org/2000/svg">
 <path d="m510.1 161.41c-2.9766 0-5.6523 1.8164-6.7422 4.582l-19.551 49.586-49.609 19.566c-2.7539 1.0977-4.5625 3.7617-4.5625 6.7266s1.8086 5.6289 4.5625 6.7266l49.609 19.566 19.551 49.586c1.0859 2.7734 3.7617 4.5977 6.7422 4.5977 2.9805 0 5.6562-1.8242 6.7461-4.5977l19.547-49.586 49.637-19.566c2.7539-1.0977 4.5625-3.7617 4.5625-6.7266s-1.8086-5.6289-4.5625-6.7266l-49.637-19.566-19.547-49.586c-1.0938-2.7656-3.7695-4.5859-6.7461-4.582zm-208.44 21.855c-2.9805 0.003906-5.6562 1.832-6.7422 4.6094l-36.477 92.395-92.441 36.414c-2.7695 1.0898-4.5898 3.7617-4.5898 6.7383s1.8203 5.6484 4.5898 6.7383l92.441 36.461 36.477 92.395c1.0898 2.7695 3.7656 4.5938 6.7422 4.5938 2.9805 0 5.6523-1.8242 6.7422-4.5938l36.477-92.395 92.438-36.461h0.003906c2.7695-1.0898 4.5898-3.7617 4.5898-6.7383s-1.8203-5.6484-4.5898-6.7383l-92.438-36.414-36.477-92.395h-0.003906c-1.082-2.7773-3.7617-4.6055-6.7422-4.6094zm208.44 5.1328 13.98 35.422c0.74219 1.8633 2.2227 3.3359 4.0938 4.0664l35.465 13.973-35.465 14c-1.8672 0.73047-3.3516 2.1992-4.0938 4.0625l-13.98 35.422-13.977-35.422h-0.003906c-0.74219-1.8633-2.2227-3.332-4.0938-4.0625l-35.465-14 35.465-13.973c1.8711-0.73047 3.3516-2.2031 4.0938-4.0664zm-208.44 21.871 30.883 78.227v-0.003906c0.73438 1.8594 2.2031 3.3281 4.0625 4.0664l78.312 30.863-78.312 30.863c-1.8672 0.75-3.3398 2.2383-4.0625 4.1133l-30.883 78.227-30.879-78.227c-0.72656-1.875-2.1953-3.3633-4.0625-4.1133l-78.312-30.863 78.312-30.863c1.8555-0.73828 3.3281-2.207 4.0625-4.0664zm185.98 183.38c-2.9766 0-5.6484 1.8203-6.7383 4.5859l-14.105 35.777-35.797 14.117c-2.7578 1.0977-4.5664 3.7617-4.5664 6.7266 0 2.9688 1.8086 5.6328 4.5664 6.7305l35.797 14.117 14.105 35.777c1.0898 2.7695 3.7617 4.5898 6.7383 4.5898 2.9766 0 5.6523-1.8203 6.7422-4.5898l14.105-35.777 35.797-14.117c2.7578-1.0977 4.5664-3.7617 4.5664-6.7305 0-2.9648-1.8086-5.6289-4.5664-6.7266l-35.797-14.117-14.105-35.777c-1.0898-2.7656-3.7656-4.5859-6.7422-4.5859zm0 26.988 8.5312 21.621c0.74219 1.8633 2.2227 3.332 4.0859 4.0625l21.648 8.5273-21.648 8.5273c-1.8711 0.73438-3.3477 2.2148-4.0859 4.082l-8.5312 21.617-8.5312-21.617c-0.73438-1.8672-2.2148-3.3477-4.082-4.082l-21.652-8.5273 21.652-8.5273c1.8633-0.73047 3.3398-2.2031 4.082-4.0625zm-258.68 34.949c-2.9766 0-5.6523 1.8164-6.7422 4.582l-15.887 40.289-40.312 15.902v0.003906c-2.7539 1.0938-4.5625 3.7617-4.5625 6.7266 0 2.9609 1.8086 5.6289 4.5625 6.7227l40.312 15.902 15.887 40.289v0.003906c1.0898 2.7695 3.7617 4.5898 6.7383 4.5898 2.9805 0 5.6523-1.8203 6.7422-4.5898l15.887-40.289 40.312-15.902v-0.003906c2.7539-1.0938 4.5625-3.7617 4.5625-6.7227 0-2.9648-1.8086-5.6328-4.5625-6.7266l-40.312-15.902-15.887-40.289v-0.003907c-1.0898-2.7656-3.7617-4.582-6.7383-4.582zm0 26.973 10.312 26.141v0.003907c0.74219 1.8594 2.2227 3.332 4.0898 4.0664l26.156 10.309-26.156 10.309c-1.8711 0.73438-3.3516 2.2148-4.0898 4.0859l-10.312 26.141-10.312-26.141h-0.003906c-0.73438-1.8711-2.2188-3.3516-4.0898-4.0859l-26.156-10.309 26.156-10.309c1.8672-0.73047 3.3516-2.2031 4.0898-4.0664z"/>
</svg>
