<?xml version="1.0" encoding="UTF-8"?>
<svg width="752pt" height="752pt" version="1.1" viewBox="0 0 752 752" xmlns="http://www.w3.org/2000/svg">
 <g>
  <rect width="752" height="752" fill="#fff"/>
  <path d="m319.87 379.11c-1.7188 0-3.4336-0.57422-4.9219-1.6055-9.8516-7.3281-33.898-33.32-35.844-40.879-10.992-44.543-3.0898-58.742 10.879-78.211 4.6953-6.5234 9.3906-13.281 13.969-22.785 2.75-5.8398 4.582-10.191 5.8398-13.398 2.75-6.6406 4.6953-11.336 10.766-11.793 5.9531-0.34375 8.5859 4.1211 10.992 8.1289 3.5508 6.0703 11.105 18.664 31.375 35.039 23.816 19.125 51.645 58.859 30.688 89.66-2.5195 3.7812-7.6719 4.6953-11.449 2.1758-3.7812-2.5195-4.6953-7.6719-2.1758-11.449 15.113-22.215-11.91-55.078-27.367-67.445-15.918-12.824-24.848-23.82-30.23-31.492-1.0312 2.293-2.1758 4.8125-3.5508 7.7891-5.1523 10.879-10.648 18.551-15.457 25.305-11.223 15.805-17.977 25.309-8.2461 64.699 1.832 3.4336 20.496 24.848 29.543 31.488 3.6641 2.7461 4.4648 7.9023 1.7188 11.566-1.6055 2.1758-4.1211 3.3203-6.6406 3.3203z"/>
  <path d="m273.73 462.59h-0.45703c-45.688-3.3203-56.797-15.23-71.109-34.469-4.8086-6.4102-9.6172-13.051-17.406-20.266-4.6953-4.3516-8.2422-7.4453-10.879-9.7344-5.3789-4.6953-9.3867-8.0156-7.8984-13.855 1.375-5.7266 6.6406-6.8711 11.223-7.8984 6.8672-1.6055 21.184-4.8125 42.938-19.012 25.535-16.719 71.914-30.914 94.699-1.4883 2.75 3.5508 2.1758 8.8164-1.4883 11.566-3.5508 2.75-8.8164 2.1758-11.566-1.4883-16.488-21.301-55.992-5.7266-72.598 5.1523-17.176 11.223-30.344 16.375-39.391 19.008 1.832 1.6055 3.8945 3.5508 6.2969 5.7266 8.8203 8.2422 14.43 15.801 19.355 22.441 11.562 15.574 18.547 24.965 58.969 27.828 3.0938-0.57422 25.078-9.7344 36.527-16.719 3.8945-2.4062 8.9336-1.1445 11.336 2.7461 2.4062 3.8945 1.1484 8.9336-2.7461 11.34-9.2734 5.7227-37.445 19.121-45.805 19.121z"/>
  <path d="m288.27 586.37c-1.4883 0-3.0938-0.45703-4.6953-1.375-5.0391-3.0898-4.4648-8.3594-4.1211-13.055 0.6875-6.9844 2.0586-21.641-4.8125-46.719-8.0156-29.543-7.2109-77.98 27.941-90.461 4.2383-1.4883 9.0469 0.6875 10.535 4.9258 1.4883 4.2344-0.6875 9.0469-4.9219 10.535-25.309 9.043-22.789 51.527-17.523 70.648 5.3828 19.812 6.1836 33.895 5.957 43.285 2.1758-1.2578 4.5781-2.6328 7.4414-4.2344 10.535-5.8398 19.469-8.8203 27.367-11.453 18.324-6.1836 29.43-9.8477 44.773-47.52 0.11328-1.7188-0.45703-14.773-2.4062-28.168-0.68359-4.4688 2.5195-8.7031 6.9883-9.3906 4.5781-0.6875 8.7031 2.5195 9.3867 6.9844 0.11719 1.2578 4.2383 29.773 1.375 36.871-17.176 42.48-32.062 49.238-54.734 56.91-7.5586 2.5195-15.344 5.1523-24.734 10.305-5.6094 3.0938-9.7305 5.6133-12.594 7.3281-4.2383 2.5195-7.5586 4.6953-10.992 4.6953z"/>
  <path d="m505.15 537.25c-2.75 0-5.4961-1.1484-8.0156-2.293-6.5273-2.7461-20.039-8.5859-45.918-9.8477-30.574-1.4883-76.379-17.289-77.523-54.504-0.11328-4.582 3.4375-8.3594 8.0156-8.4766 4.3516 0 8.3594 3.4375 8.4727 8.0156 0.80469 26.91 42.027 37.559 61.836 38.477 20.496 1.0312 34.125 4.582 42.941 7.7852-0.57422-2.4023-1.1445-5.1523-1.7188-8.3594-2.2891-11.793-2.2891-21.297-2.4062-29.543-0.22656-19.352-0.22656-31.031-31.375-57.254-2.0586-0.91406-18.891-5.3789-33.664-7.3281-4.4648-0.57031-7.6719-4.8086-7.0977-9.2734 0.57031-4.4648 4.6914-7.6719 9.2734-7.1016 7.5586 1.0312 36.301 6.1836 42.141 11.109 35.039 29.543 36.984 45.688 37.215 69.621 0 8.0156 0.11328 16.258 2.0586 26.68 1.1445 6.2969 2.293 10.879 3.0938 14.312 1.7148 6.9844 2.8633 12.023-1.7188 15.918-1.832 1.6016-3.7773 2.1758-5.7266 2.1758z"/>
  <path d="m441.94 415.86c-3.8945 0-7.9023-0.57422-11.91-1.7188-4.3516-1.2578-6.8711-5.8398-5.6094-10.191 1.2578-4.3516 5.8398-6.8672 10.188-5.6094 25.996 7.5586 48.668-28.285 55.77-46.832 7.2109-19.125 14.883-31.035 20.609-38.477-2.4062-0.23047-5.2656-0.57422-8.4727-0.91406-11.91-1.4922-20.957-4.3516-28.855-6.8711-18.438-5.8398-29.66-9.3906-64.125 12.137-2.6328 2.75-17.293 27.137-20.84 37.902-1.4883 4.3516-6.0703 6.7539-10.422 5.2656-4.3516-1.4883-6.6406-6.0664-5.2656-10.418 3.8906-11.68 21.184-42.598 27.824-46.719 38.934-24.277 54.848-21.07 77.75-13.855 7.6719 2.4023 15.457 4.9219 25.992 6.1836 6.3008 0.80078 11.109 1.1445 14.543 1.4883 7.1016 0.57031 12.254 1.0312 14.543 6.5273 2.1758 5.4961-1.2578 9.5039-4.3516 12.938-4.6953 5.2695-14.312 16.375-23.586 40.652-9.6211 25.305-33.555 58.512-63.781 58.512z"/>
  <path d="m393.96 313.14c-4.0078 0-7.4414-2.8633-8.1289-6.9844-1.375-8.2422 27.484-36.414 27.824-36.527 10.422-6.5273 45.918-61.605 44.773-72.141-1.6016-12.137-4.8086-15.344-5.3789-15.457-0.91797-0.34375-7.2148 2.0586-16.492 16.945-2.4023 3.8945-7.4414 5.0391-11.336 2.6328-3.8906-2.4023-5.0391-7.4414-2.6328-11.336 14.312-23.129 26.449-25.992 33.895-24.391 9.8477 2.0625 16.031 12.023 18.32 29.43 2.6328 19.926-37.902 77.293-51.07 87.484-3.4336 3.8945-19.465 21.984-22.215 25.879-1.1445 2.2891-3.3203 4.0078-6.0664 4.4648h-1.375z"/>
  <path d="m176.16 516.74c-3.5508 0-6.8711-2.2891-7.8984-5.9531-1.1484-4.0078 0.80078-8.1289 4.4648-9.8477 6.1836-3.4336 74.316-47.863 77.863-50.5 3.5508-2.6328 8.5898-1.9453 11.336 1.4922 2.75 3.4336 2.293 8.4727-1.0273 11.336-0.46094 0.45703-78.211 51.871-82.562 53.129-0.80078 0.23047-1.6016 0.34375-2.2891 0.34375z"/>
  <path d="m449.04 300.78c-2.6328 0-5.1523-1.2617-6.7578-3.5508-2.6328-3.7773-1.7148-8.8164 2.0625-11.449 17.062-11.91 28.055-34.355 38.703-56.109 16.145-33.094 34.469-70.652 77.18-55.652 4.3516 1.4883 6.5273 6.1836 5.0391 10.535-1.4883 4.2383-6.1836 6.5273-10.535 5.0391-27.598-9.7344-39.047 10.648-56.91 47.289-11.566 23.59-23.477 47.98-44.086 62.41-1.375 1.0273-3.0938 1.4883-4.6953 1.4883z"/>
  <path d="m173.77 552.58c-3.0938 0-6.0703-1.7188-7.4453-4.6953-1.9453-4.1211-0.22656-9.0469 3.8945-10.992 18.551-8.8164 54.848-28.973 72.254-40.648 3.5508-2.4062 7.1016-5.957 10.766-9.7344 6.8711-7.1016 14.656-15 25.535-16.949 4.3516-0.80078 8.7031 2.293 9.5039 6.7578 0.80078 4.4648-2.2891 8.7031-6.7578 9.5039-5.6094 0.91406-10.879 6.4102-16.602 12.254-4.1211 4.2344-8.3594 8.5859-13.398 11.906-17.977 12.023-55.309 32.75-74.316 41.797-1.1445 0.57031-2.4023 0.80078-3.5469 0.80078z"/>
  <path d="m487.98 302.15c-3.668 0-6.9883-2.4062-8.0156-6.1836-1.1484-4.3516 1.4883-8.9336 5.8398-10.078 3.3203-1.7188 13.969-15.688 21.066-24.961 12.598-16.605 24.621-32.406 34.926-37.789 15.344-8.0156 31.832-7.2148 40.191 1.7188 4.582 4.9219 10.535 16.258-1.9453 36.527-2.4062 3.7773-4.582 7.3281-6.1836 9.8477-1.1445 1.7188-1.9453 2.9766-2.1758 3.5508-2.2891 4.0078-7.3281 5.3789-11.223 3.2031-4.0078-2.1758-5.3789-7.2109-3.207-11.219 0.34375-0.6875 1.375-2.293 2.75-4.4688 1.6055-2.5195 3.7773-5.8398 6.0703-9.5039 5.7227-9.2734 5.7227-14.77 3.8906-16.719-2.4023-2.5195-10.875-3.4336-20.496 1.6055-7.0977 3.7773-19.582 20.039-29.543 33.207-14.426 18.895-22.215 28.855-30 30.918-0.6875 0.22656-1.375 0.22656-2.0625 0.22656z"/>
  <path d="m212.81 583.84c-2.4062 0-4.8086-1.0312-6.4141-3.0938-2.8594-3.5508-2.2891-8.7031 1.375-11.566 8.9336-7.0977 19.352-16.375 24.391-20.953l2.1758-1.9453c11.793-10.309 19.121-19.699 26.223-28.629 4.3516-5.4961 8.4727-10.766 13.398-15.918 3.0898-3.3203 8.3594-3.4336 11.68-0.34375 3.3203 3.0938 3.4336 8.3594 0.34375 11.68-4.3516 4.582-8.2461 9.5039-12.367 14.773-7.2148 9.1602-15.344 19.465-28.285 30.801l-2.0586 1.832c-5.1562 4.582-15.805 14.199-25.078 21.527-1.4883 1.2617-3.3203 1.8359-5.1523 1.8359z"/>
  <path d="m344.26 469.8c-4.0078 0-8.2461-0.80078-12.367-2.6328-11.109-5.0391-24.621-18.895-25.422-56.57-0.57422-26.906 11.449-50.152 31.375-60.344 19.352-10.078 42.828-6.6406 64.238 9.2734 30.23 22.445 30.348 55.309 23.703 67.102-3.6641 6.5273-9.6172 7.7891-13.969 6.0703-4.4648-1.7188-7.0977-5.7266-10.422-10.762-1.4883-2.293-3.2031-4.8125-5.2656-7.5586-2.6328-3.3203-5.2695-6.2969-8.2461-8.8164 0.57422 4.1211 0 8.0156-3.4336 10.992-6.8711 5.6094-12.824 8.1289-17.293 8.0156-6.6406-0.11719-10.418-4.2383-12.824-8.4727-2.2891 7.0977-0.57031 11.562 2.5195 20.379 1.7188 4.8125 3.8945 10.766 5.957 18.551 0.91406 3.6641-0.34375 7.5586-3.6641 10.309-3.207 2.7461-8.7031 4.5781-14.773 4.5781zm16.945-108.79c-5.6094 0-10.879 1.2617-15.801 3.7812-14.312 7.3281-22.902 24.734-22.445 45.344 0.6875 29.543 9.5039 38.59 14.773 41.453 2.6328 1.4883 5.2656 1.7188 7.3281 1.6016-1.375-4.3516-2.6328-8.0156-3.7812-11.336-5.7227-16.031-8.0156-24.734 4.8125-46.949 1.1445-2.0586 3.2031-3.4336 5.4961-4.0078 2.2891-0.45703 4.6953 0 6.6406 1.4883 4.4648 3.3242 6.7578 8.0156 8.5898 11.797 0.45703 1.0312 1.1445 2.2891 1.7148 3.207 0.57422-0.23047 1.4883-0.80469 2.75-1.7188-0.34375-1.1445-0.6875-2.4062-1.0312-3.4336-1.832-5.7266-3.4336-11.109-1.0312-15.805 1.375-2.6328 3.7812-4.4648 6.5273-5.0391 4.9258-1.1445 10.191 1.2617 20.152 8.9336 4.9258 3.7773 9.2773 8.2422 13.398 13.512 1.375 1.7188 2.6328 3.4336 3.6641 5.1523-0.23047-9.6172-4.3516-24.504-20.609-36.527-10.422-7.6719-21.07-11.68-31.035-11.68z"/>
  <path d="m382.63 475.75c-14.887 0-29.086-12.367-42.254-36.871-2.1758-4.0078-0.6875-9.0469 3.3203-11.223 4.0078-2.1719 9.0469-0.68359 11.223 3.3242 13.969 25.875 24.848 28.281 28.168 28.168 5.1523-0.23047 10.305-5.0391 13.855-13.055 4.9258-11.109 5.0391-24.734 0.34375-30.461-2.8633-3.5469-2.4023-8.6992 1.0312-11.562 3.5508-2.8633 8.7031-2.4062 11.566 1.0273 10.418 12.598 8.3594 33.555 2.0586 47.754-6.2969 14.082-16.602 22.441-28.281 22.785h-1.0312z"/>
 </g>
</svg>
